<?xml version="1.0" encoding="UTF-8" standalone="no"?>
<!DOCTYPE svg PUBLIC "-//W3C//DTD SVG 1.1//EN"
 "http://www.w3.org/Graphics/SVG/1.1/DTD/svg11.dtd">
<!-- Generated by graphviz version 2.42.3 (20191010.1750)
 -->
<!-- Title: %3 Pages: 1 -->
<svg width="2246pt" height="620pt"
 viewBox="0.00 0.00 2245.84 620.00" xmlns="http://www.w3.org/2000/svg" xmlns:xlink="http://www.w3.org/1999/xlink">
<g id="graph0" class="graph" transform="scale(1 1) rotate(0) translate(4 616)">
<title>%3</title>
<polygon fill="white" stroke="transparent" points="-4,4 -4,-616 2241.84,-616 2241.84,4 -4,4"/>
<!-- [root] aws_alb.main -->
<g id="node1" class="node">
<title>[root] aws_alb.main</title>
<polygon fill="none" stroke="black" points="506.6,-324 412.86,-324 412.86,-288 506.6,-288 506.6,-324"/>
<text text-anchor="middle" x="459.73" y="-301.8" font-family="Times,serif" font-size="14.00">aws_alb.main</text>
</g>
<!-- [root] aws_security_group.lb -->
<g id="node18" class="node">
<title>[root] aws_security_group.lb</title>
<polygon fill="none" stroke="black" points="787.38,-252 644.09,-252 644.09,-216 787.38,-216 787.38,-252"/>
<text text-anchor="middle" x="715.73" y="-229.8" font-family="Times,serif" font-size="14.00">aws_security_group.lb</text>
</g>
<!-- [root] aws_alb.main&#45;&gt;[root] aws_security_group.lb -->
<g id="edge1" class="edge">
<title>[root] aws_alb.main&#45;&gt;[root] aws_security_group.lb</title>
<path fill="none" stroke="black" d="M506.5,-290.4C509.28,-289.58 512.04,-288.77 514.73,-288 555.34,-276.38 600.83,-264.3 638.25,-254.62"/>
<polygon fill="black" stroke="black" points="639.27,-257.97 648.08,-252.08 637.53,-251.19 639.27,-257.97"/>
</g>
<!-- [root] aws_subnet.public -->
<g id="node20" class="node">
<title>[root] aws_subnet.public</title>
<polygon fill="none" stroke="black" points="351.55,-252 231.92,-252 231.92,-216 351.55,-216 351.55,-252"/>
<text text-anchor="middle" x="291.73" y="-229.8" font-family="Times,serif" font-size="14.00">aws_subnet.public</text>
</g>
<!-- [root] aws_alb.main&#45;&gt;[root] aws_subnet.public -->
<g id="edge2" class="edge">
<title>[root] aws_alb.main&#45;&gt;[root] aws_subnet.public</title>
<path fill="none" stroke="black" d="M418.64,-287.88C395.57,-278.26 366.6,-266.19 342.16,-256.01"/>
<polygon fill="black" stroke="black" points="343.28,-252.68 332.7,-252.07 340.58,-259.15 343.28,-252.68"/>
</g>
<!-- [root] aws_alb_listener.front_end -->
<g id="node2" class="node">
<title>[root] aws_alb_listener.front_end</title>
<polygon fill="none" stroke="black" points="700.48,-396 532.99,-396 532.99,-360 700.48,-360 700.48,-396"/>
<text text-anchor="middle" x="616.73" y="-373.8" font-family="Times,serif" font-size="14.00">aws_alb_listener.front_end</text>
</g>
<!-- [root] aws_alb_listener.front_end&#45;&gt;[root] aws_alb.main -->
<g id="edge3" class="edge">
<title>[root] aws_alb_listener.front_end&#45;&gt;[root] aws_alb.main</title>
<path fill="none" stroke="black" d="M578.33,-359.88C556.87,-350.31 529.94,-338.3 507.17,-328.15"/>
<polygon fill="black" stroke="black" points="508.58,-324.94 498.02,-324.07 505.72,-331.34 508.58,-324.94"/>
</g>
<!-- [root] aws_alb_target_group.grafana -->
<g id="node3" class="node">
<title>[root] aws_alb_target_group.grafana</title>
<polygon fill="none" stroke="black" points="709.36,-324 524.11,-324 524.11,-288 709.36,-288 709.36,-324"/>
<text text-anchor="middle" x="616.73" y="-301.8" font-family="Times,serif" font-size="14.00">aws_alb_target_group.grafana</text>
</g>
<!-- [root] aws_alb_listener.front_end&#45;&gt;[root] aws_alb_target_group.grafana -->
<g id="edge4" class="edge">
<title>[root] aws_alb_listener.front_end&#45;&gt;[root] aws_alb_target_group.grafana</title>
<path fill="none" stroke="black" d="M616.73,-359.7C616.73,-351.98 616.73,-342.71 616.73,-334.11"/>
<polygon fill="black" stroke="black" points="620.23,-334.1 616.73,-324.1 613.23,-334.1 620.23,-334.1"/>
</g>
<!-- [root] aws_vpc.main -->
<g id="node21" class="node">
<title>[root] aws_vpc.main</title>
<polygon fill="none" stroke="black" points="610.22,-108 513.25,-108 513.25,-72 610.22,-72 610.22,-108"/>
<text text-anchor="middle" x="561.73" y="-85.8" font-family="Times,serif" font-size="14.00">aws_vpc.main</text>
</g>
<!-- [root] aws_alb_target_group.grafana&#45;&gt;[root] aws_vpc.main -->
<g id="edge5" class="edge">
<title>[root] aws_alb_target_group.grafana&#45;&gt;[root] aws_vpc.main</title>
<path fill="none" stroke="black" d="M617.13,-287.95C617.29,-257.9 615.17,-193.94 596.73,-144 593.16,-134.33 587.53,-124.65 581.82,-116.26"/>
<polygon fill="black" stroke="black" points="584.6,-114.12 575.92,-108.04 578.91,-118.2 584.6,-114.12"/>
</g>
<!-- [root] var.app_port -->
<g id="node28" class="node">
<title>[root] var.app_port</title>
<polygon fill="none" stroke="black" points="895.11,-252 814.36,-252 814.36,-216 901.11,-216 901.11,-246 895.11,-252"/>
<polyline fill="none" stroke="black" points="895.11,-252 895.11,-246 "/>
<polyline fill="none" stroke="black" points="901.11,-246 895.11,-246 "/>
<text text-anchor="middle" x="857.73" y="-229.8" font-family="Times,serif" font-size="14.00">var.app_port</text>
</g>
<!-- [root] aws_alb_target_group.grafana&#45;&gt;[root] var.app_port -->
<g id="edge6" class="edge">
<title>[root] aws_alb_target_group.grafana&#45;&gt;[root] var.app_port</title>
<path fill="none" stroke="black" d="M675.38,-287.97C714.78,-276.52 766.27,-261.57 804.49,-250.47"/>
<polygon fill="black" stroke="black" points="805.77,-253.74 814.39,-247.59 803.82,-247.02 805.77,-253.74"/>
</g>
<!-- [root] aws_cloudwatch_log_group.grafana -->
<g id="node4" class="node">
<title>[root] aws_cloudwatch_log_group.grafana</title>
<polygon fill="none" stroke="black" points="2189.56,-108 1969.91,-108 1969.91,-72 2189.56,-72 2189.56,-108"/>
<text text-anchor="middle" x="2079.73" y="-85.8" font-family="Times,serif" font-size="14.00">aws_cloudwatch_log_group.grafana</text>
</g>
<!-- [root] provider.aws -->
<g id="node26" class="node">
<title>[root] provider.aws</title>
<polygon fill="none" stroke="black" points="1592.73,-36 1514.13,-18 1592.73,0 1671.34,-18 1592.73,-36"/>
<text text-anchor="middle" x="1592.73" y="-13.8" font-family="Times,serif" font-size="14.00">provider.aws</text>
</g>
<!-- [root] aws_cloudwatch_log_group.grafana&#45;&gt;[root] provider.aws -->
<g id="edge7" class="edge">
<title>[root] aws_cloudwatch_log_group.grafana&#45;&gt;[root] provider.aws</title>
<path fill="none" stroke="black" d="M1969.84,-73.2C1869.96,-58.85 1726.65,-38.25 1648.6,-27.03"/>
<polygon fill="black" stroke="black" points="1648.89,-23.54 1638.49,-25.58 1647.89,-30.46 1648.89,-23.54"/>
</g>
<!-- [root] var.logs_retention_in_days -->
<g id="node36" class="node">
<title>[root] var.logs_retention_in_days</title>
<polygon fill="none" stroke="black" points="2037.49,-36 1875.98,-36 1875.98,0 2043.49,0 2043.49,-30 2037.49,-36"/>
<polyline fill="none" stroke="black" points="2037.49,-36 2037.49,-30 "/>
<polyline fill="none" stroke="black" points="2043.49,-30 2037.49,-30 "/>
<text text-anchor="middle" x="1959.73" y="-13.8" font-family="Times,serif" font-size="14.00">var.logs_retention_in_days</text>
</g>
<!-- [root] aws_cloudwatch_log_group.grafana&#45;&gt;[root] var.logs_retention_in_days -->
<g id="edge8" class="edge">
<title>[root] aws_cloudwatch_log_group.grafana&#45;&gt;[root] var.logs_retention_in_days</title>
<path fill="none" stroke="black" d="M2050.38,-71.88C2034.69,-62.72 2015.18,-51.34 1998.28,-41.48"/>
<polygon fill="black" stroke="black" points="1999.6,-38.21 1989.2,-36.19 1996.08,-44.25 1999.6,-38.21"/>
</g>
<!-- [root] aws_cloudwatch_log_group.influxdb -->
<g id="node5" class="node">
<title>[root] aws_cloudwatch_log_group.influxdb</title>
<polygon fill="none" stroke="black" points="1951.77,-108 1727.7,-108 1727.7,-72 1951.77,-72 1951.77,-108"/>
<text text-anchor="middle" x="1839.73" y="-85.8" font-family="Times,serif" font-size="14.00">aws_cloudwatch_log_group.influxdb</text>
</g>
<!-- [root] aws_cloudwatch_log_group.influxdb&#45;&gt;[root] provider.aws -->
<g id="edge9" class="edge">
<title>[root] aws_cloudwatch_log_group.influxdb&#45;&gt;[root] provider.aws</title>
<path fill="none" stroke="black" d="M1779.63,-71.97C1735.13,-59.36 1675.58,-42.48 1635.77,-31.2"/>
<polygon fill="black" stroke="black" points="1636.67,-27.81 1626.1,-28.45 1634.76,-34.55 1636.67,-27.81"/>
</g>
<!-- [root] aws_cloudwatch_log_group.influxdb&#45;&gt;[root] var.logs_retention_in_days -->
<g id="edge10" class="edge">
<title>[root] aws_cloudwatch_log_group.influxdb&#45;&gt;[root] var.logs_retention_in_days</title>
<path fill="none" stroke="black" d="M1869.09,-71.88C1884.78,-62.72 1904.29,-51.34 1921.19,-41.48"/>
<polygon fill="black" stroke="black" points="1923.39,-44.25 1930.27,-36.19 1919.87,-38.21 1923.39,-44.25"/>
</g>
<!-- [root] aws_ecs_cluster.main -->
<g id="node6" class="node">
<title>[root] aws_ecs_cluster.main</title>
<polygon fill="none" stroke="black" points="1709.43,-108 1572.04,-108 1572.04,-72 1709.43,-72 1709.43,-108"/>
<text text-anchor="middle" x="1640.73" y="-85.8" font-family="Times,serif" font-size="14.00">aws_ecs_cluster.main</text>
</g>
<!-- [root] aws_ecs_cluster.main&#45;&gt;[root] provider.aws -->
<g id="edge11" class="edge">
<title>[root] aws_ecs_cluster.main&#45;&gt;[root] provider.aws</title>
<path fill="none" stroke="black" d="M1628.87,-71.7C1622.75,-62.77 1615.2,-51.76 1608.58,-42.11"/>
<polygon fill="black" stroke="black" points="1611.38,-40.01 1602.84,-33.74 1605.61,-43.96 1611.38,-40.01"/>
</g>
<!-- [root] aws_ecs_service.main -->
<g id="node7" class="node">
<title>[root] aws_ecs_service.main</title>
<polygon fill="none" stroke="black" points="866.02,-468 725.45,-468 725.45,-432 866.02,-432 866.02,-468"/>
<text text-anchor="middle" x="795.73" y="-445.8" font-family="Times,serif" font-size="14.00">aws_ecs_service.main</text>
</g>
<!-- [root] aws_ecs_service.main&#45;&gt;[root] aws_alb_listener.front_end -->
<g id="edge12" class="edge">
<title>[root] aws_ecs_service.main&#45;&gt;[root] aws_alb_listener.front_end</title>
<path fill="none" stroke="black" d="M751.95,-431.88C727.15,-422.18 695.95,-409.98 669.78,-399.74"/>
<polygon fill="black" stroke="black" points="670.97,-396.45 660.38,-396.07 668.42,-402.97 670.97,-396.45"/>
</g>
<!-- [root] aws_ecs_service.main&#45;&gt;[root] aws_ecs_cluster.main -->
<g id="edge13" class="edge">
<title>[root] aws_ecs_service.main&#45;&gt;[root] aws_ecs_cluster.main</title>
<path fill="none" stroke="black" d="M866.35,-432.77C867.83,-432.5 869.29,-432.25 870.73,-432 976.45,-413.99 1827.73,-414.24 1827.73,-307 1827.73,-307 1827.73,-307 1827.73,-233 1827.73,-171.09 1761.91,-132.66 1708.37,-111.64"/>
<polygon fill="black" stroke="black" points="1709.47,-108.31 1698.88,-108.04 1706.99,-114.85 1709.47,-108.31"/>
</g>
<!-- [root] aws_ecs_task_definition.grafana -->
<g id="node8" class="node">
<title>[root] aws_ecs_task_definition.grafana</title>
<polygon fill="none" stroke="black" points="1056.07,-396 857.4,-396 857.4,-360 1056.07,-360 1056.07,-396"/>
<text text-anchor="middle" x="956.73" y="-373.8" font-family="Times,serif" font-size="14.00">aws_ecs_task_definition.grafana</text>
</g>
<!-- [root] aws_ecs_service.main&#45;&gt;[root] aws_ecs_task_definition.grafana -->
<g id="edge14" class="edge">
<title>[root] aws_ecs_service.main&#45;&gt;[root] aws_ecs_task_definition.grafana</title>
<path fill="none" stroke="black" d="M835.12,-431.88C857.13,-422.31 884.74,-410.3 908.09,-400.15"/>
<polygon fill="black" stroke="black" points="909.7,-403.27 917.48,-396.07 906.91,-396.85 909.7,-403.27"/>
</g>
<!-- [root] aws_security_group.ecs_tasks -->
<g id="node17" class="node">
<title>[root] aws_security_group.ecs_tasks</title>
<polygon fill="none" stroke="black" points="1497.36,-324 1312.11,-324 1312.11,-288 1497.36,-288 1497.36,-324"/>
<text text-anchor="middle" x="1404.73" y="-301.8" font-family="Times,serif" font-size="14.00">aws_security_group.ecs_tasks</text>
</g>
<!-- [root] aws_ecs_service.main&#45;&gt;[root] aws_security_group.ecs_tasks -->
<g id="edge15" class="edge">
<title>[root] aws_ecs_service.main&#45;&gt;[root] aws_security_group.ecs_tasks</title>
<path fill="none" stroke="black" d="M866.31,-434.68C870.85,-433.77 875.36,-432.87 879.73,-432 961.9,-415.69 983.07,-414.62 1064.73,-396 1158.72,-374.58 1266.19,-345.7 1334.7,-326.73"/>
<polygon fill="black" stroke="black" points="1335.82,-330.05 1344.52,-324 1333.95,-323.31 1335.82,-330.05"/>
</g>
<!-- [root] aws_subnet.private -->
<g id="node19" class="node">
<title>[root] aws_subnet.private</title>
<polygon fill="none" stroke="black" points="213.43,-252 90.04,-252 90.04,-216 213.43,-216 213.43,-252"/>
<text text-anchor="middle" x="151.73" y="-229.8" font-family="Times,serif" font-size="14.00">aws_subnet.private</text>
</g>
<!-- [root] aws_ecs_service.main&#45;&gt;[root] aws_subnet.private -->
<g id="edge16" class="edge">
<title>[root] aws_ecs_service.main&#45;&gt;[root] aws_subnet.private</title>
<path fill="none" stroke="black" d="M725.12,-433.7C722.29,-433.12 719.49,-432.55 716.73,-432 631.19,-414.82 609.15,-413.81 523.73,-396 506.32,-392.37 226.39,-334.08 211.73,-324 189.3,-308.58 172.93,-281.77 163.01,-261.6"/>
<polygon fill="black" stroke="black" points="166.07,-259.88 158.66,-252.31 159.73,-262.85 166.07,-259.88"/>
</g>
<!-- [root] var.app_count -->
<g id="node27" class="node">
<title>[root] var.app_count</title>
<polygon fill="none" stroke="black" points="833.16,-396 744.31,-396 744.31,-360 839.16,-360 839.16,-390 833.16,-396"/>
<polyline fill="none" stroke="black" points="833.16,-396 833.16,-390 "/>
<polyline fill="none" stroke="black" points="839.16,-390 833.16,-390 "/>
<text text-anchor="middle" x="791.73" y="-373.8" font-family="Times,serif" font-size="14.00">var.app_count</text>
</g>
<!-- [root] aws_ecs_service.main&#45;&gt;[root] var.app_count -->
<g id="edge17" class="edge">
<title>[root] aws_ecs_service.main&#45;&gt;[root] var.app_count</title>
<path fill="none" stroke="black" d="M794.75,-431.7C794.31,-423.98 793.78,-414.71 793.28,-406.11"/>
<polygon fill="black" stroke="black" points="796.78,-405.89 792.71,-396.1 789.79,-406.29 796.78,-405.89"/>
</g>
<!-- [root] aws_iam_role.grafana_ecs_task_execution_role -->
<g id="node10" class="node">
<title>[root] aws_iam_role.grafana_ecs_task_execution_role</title>
<polygon fill="none" stroke="black" points="1799.85,-324 1515.62,-324 1515.62,-288 1799.85,-288 1799.85,-324"/>
<text text-anchor="middle" x="1657.73" y="-301.8" font-family="Times,serif" font-size="14.00">aws_iam_role.grafana_ecs_task_execution_role</text>
</g>
<!-- [root] aws_ecs_task_definition.grafana&#45;&gt;[root] aws_iam_role.grafana_ecs_task_execution_role -->
<g id="edge18" class="edge">
<title>[root] aws_ecs_task_definition.grafana&#45;&gt;[root] aws_iam_role.grafana_ecs_task_execution_role</title>
<path fill="none" stroke="black" d="M1056.14,-367.9C1164.07,-357.92 1341.84,-341.15 1505.23,-324.15"/>
<polygon fill="black" stroke="black" points="1505.89,-327.6 1515.48,-323.08 1505.17,-320.64 1505.89,-327.6"/>
</g>
<!-- [root] aws_ecs_task_definition.grafana&#45;&gt;[root] var.app_port -->
<g id="edge19" class="edge">
<title>[root] aws_ecs_task_definition.grafana&#45;&gt;[root] var.app_port</title>
<path fill="none" stroke="black" d="M918.83,-359.96C903.57,-351.28 887.15,-339.28 876.73,-324 864.33,-305.8 859.8,-281.02 858.25,-262.24"/>
<polygon fill="black" stroke="black" points="861.74,-262 857.65,-252.23 854.76,-262.42 861.74,-262"/>
</g>
<!-- [root] var.fargate_cpu -->
<g id="node32" class="node">
<title>[root] var.fargate_cpu</title>
<polygon fill="none" stroke="black" points="824.17,-324 727.3,-324 727.3,-288 830.17,-288 830.17,-318 824.17,-324"/>
<polyline fill="none" stroke="black" points="824.17,-324 824.17,-318 "/>
<polyline fill="none" stroke="black" points="830.17,-318 824.17,-318 "/>
<text text-anchor="middle" x="778.73" y="-301.8" font-family="Times,serif" font-size="14.00">var.fargate_cpu</text>
</g>
<!-- [root] aws_ecs_task_definition.grafana&#45;&gt;[root] var.fargate_cpu -->
<g id="edge20" class="edge">
<title>[root] aws_ecs_task_definition.grafana&#45;&gt;[root] var.fargate_cpu</title>
<path fill="none" stroke="black" d="M913.19,-359.88C888.53,-350.18 857.51,-337.98 831.48,-327.74"/>
<polygon fill="black" stroke="black" points="832.72,-324.47 822.14,-324.07 830.16,-330.99 832.72,-324.47"/>
</g>
<!-- [root] var.fargate_memory -->
<g id="node33" class="node">
<title>[root] var.fargate_memory</title>
<polygon fill="none" stroke="black" points="1008.11,-324 885.36,-324 885.36,-288 1014.11,-288 1014.11,-318 1008.11,-324"/>
<polyline fill="none" stroke="black" points="1008.11,-324 1008.11,-318 "/>
<polyline fill="none" stroke="black" points="1014.11,-318 1008.11,-318 "/>
<text text-anchor="middle" x="949.73" y="-301.8" font-family="Times,serif" font-size="14.00">var.fargate_memory</text>
</g>
<!-- [root] aws_ecs_task_definition.grafana&#45;&gt;[root] var.fargate_memory -->
<g id="edge21" class="edge">
<title>[root] aws_ecs_task_definition.grafana&#45;&gt;[root] var.fargate_memory</title>
<path fill="none" stroke="black" d="M955,-359.7C954.23,-351.98 953.31,-342.71 952.45,-334.11"/>
<polygon fill="black" stroke="black" points="955.92,-333.71 951.45,-324.1 948.96,-334.4 955.92,-333.71"/>
</g>
<!-- [root] var.grafana_image -->
<g id="node34" class="node">
<title>[root] var.grafana_image</title>
<polygon fill="none" stroke="black" points="1145.52,-324 1031.95,-324 1031.95,-288 1151.52,-288 1151.52,-318 1145.52,-324"/>
<polyline fill="none" stroke="black" points="1145.52,-324 1145.52,-318 "/>
<polyline fill="none" stroke="black" points="1151.52,-318 1145.52,-318 "/>
<text text-anchor="middle" x="1091.73" y="-301.8" font-family="Times,serif" font-size="14.00">var.grafana_image</text>
</g>
<!-- [root] aws_ecs_task_definition.grafana&#45;&gt;[root] var.grafana_image -->
<g id="edge22" class="edge">
<title>[root] aws_ecs_task_definition.grafana&#45;&gt;[root] var.grafana_image</title>
<path fill="none" stroke="black" d="M989.76,-359.88C1007.82,-350.51 1030.38,-338.81 1049.69,-328.8"/>
<polygon fill="black" stroke="black" points="1051.32,-331.9 1058.58,-324.19 1048.09,-325.69 1051.32,-331.9"/>
</g>
<!-- [root] var.influxdb_image -->
<g id="node35" class="node">
<title>[root] var.influxdb_image</title>
<polygon fill="none" stroke="black" points="1288.23,-324 1169.24,-324 1169.24,-288 1294.23,-288 1294.23,-318 1288.23,-324"/>
<polyline fill="none" stroke="black" points="1288.23,-324 1288.23,-318 "/>
<polyline fill="none" stroke="black" points="1294.23,-318 1288.23,-318 "/>
<text text-anchor="middle" x="1231.73" y="-301.8" font-family="Times,serif" font-size="14.00">var.influxdb_image</text>
</g>
<!-- [root] aws_ecs_task_definition.grafana&#45;&gt;[root] var.influxdb_image -->
<g id="edge23" class="edge">
<title>[root] aws_ecs_task_definition.grafana&#45;&gt;[root] var.influxdb_image</title>
<path fill="none" stroke="black" d="M1023.66,-359.97C1064.72,-349.51 1117.31,-336.13 1159.34,-325.43"/>
<polygon fill="black" stroke="black" points="1160.41,-328.77 1169.24,-322.91 1158.68,-321.98 1160.41,-328.77"/>
</g>
<!-- [root] aws_eip.gw -->
<g id="node9" class="node">
<title>[root] aws_eip.gw</title>
<polygon fill="none" stroke="black" points="452.22,-252 369.25,-252 369.25,-216 452.22,-216 452.22,-252"/>
<text text-anchor="middle" x="410.73" y="-229.8" font-family="Times,serif" font-size="14.00">aws_eip.gw</text>
</g>
<!-- [root] aws_internet_gateway.gw -->
<g id="node12" class="node">
<title>[root] aws_internet_gateway.gw</title>
<polygon fill="none" stroke="black" points="588.11,-180 427.36,-180 427.36,-144 588.11,-144 588.11,-180"/>
<text text-anchor="middle" x="507.73" y="-157.8" font-family="Times,serif" font-size="14.00">aws_internet_gateway.gw</text>
</g>
<!-- [root] aws_eip.gw&#45;&gt;[root] aws_internet_gateway.gw -->
<g id="edge24" class="edge">
<title>[root] aws_eip.gw&#45;&gt;[root] aws_internet_gateway.gw</title>
<path fill="none" stroke="black" d="M434.71,-215.7C447.05,-206.8 462.25,-195.82 475.59,-186.2"/>
<polygon fill="black" stroke="black" points="477.97,-188.79 484.03,-180.1 473.88,-183.12 477.97,-188.79"/>
</g>
<!-- [root] var.az_count -->
<g id="node31" class="node">
<title>[root] var.az_count</title>
<polygon fill="none" stroke="black" points="403.38,-180 322.09,-180 322.09,-144 409.38,-144 409.38,-174 403.38,-180"/>
<polyline fill="none" stroke="black" points="403.38,-180 403.38,-174 "/>
<polyline fill="none" stroke="black" points="409.38,-174 403.38,-174 "/>
<text text-anchor="middle" x="365.73" y="-157.8" font-family="Times,serif" font-size="14.00">var.az_count</text>
</g>
<!-- [root] aws_eip.gw&#45;&gt;[root] var.az_count -->
<g id="edge25" class="edge">
<title>[root] aws_eip.gw&#45;&gt;[root] var.az_count</title>
<path fill="none" stroke="black" d="M399.61,-215.7C394.38,-207.56 388.03,-197.69 382.26,-188.7"/>
<polygon fill="black" stroke="black" points="385.08,-186.62 376.73,-180.1 379.19,-190.41 385.08,-186.62"/>
</g>
<!-- [root] data.aws_iam_policy_document.assume_role_policy -->
<g id="node23" class="node">
<title>[root] data.aws_iam_policy_document.assume_role_policy</title>
<polygon fill="none" stroke="black" points="1733.99,-180 1421.48,-180 1421.48,-144 1733.99,-144 1733.99,-180"/>
<text text-anchor="middle" x="1577.73" y="-157.8" font-family="Times,serif" font-size="14.00">data.aws_iam_policy_document.assume_role_policy</text>
</g>
<!-- [root] aws_iam_role.grafana_ecs_task_execution_role&#45;&gt;[root] data.aws_iam_policy_document.assume_role_policy -->
<g id="edge26" class="edge">
<title>[root] aws_iam_role.grafana_ecs_task_execution_role&#45;&gt;[root] data.aws_iam_policy_document.assume_role_policy</title>
<path fill="none" stroke="black" d="M1648.08,-287.87C1634.27,-263.35 1608.74,-218.03 1592.53,-189.26"/>
<polygon fill="black" stroke="black" points="1595.38,-187.18 1587.42,-180.19 1589.28,-190.62 1595.38,-187.18"/>
</g>
<!-- [root] aws_iam_role_policy.grafana_ecs_task_execution -->
<g id="node11" class="node">
<title>[root] aws_iam_role_policy.grafana_ecs_task_execution</title>
<polygon fill="none" stroke="black" points="2152.16,-396 1855.31,-396 1855.31,-360 2152.16,-360 2152.16,-396"/>
<text text-anchor="middle" x="2003.73" y="-373.8" font-family="Times,serif" font-size="14.00">aws_iam_role_policy.grafana_ecs_task_execution</text>
</g>
<!-- [root] aws_iam_role_policy.grafana_ecs_task_execution&#45;&gt;[root] aws_iam_role.grafana_ecs_task_execution_role -->
<g id="edge27" class="edge">
<title>[root] aws_iam_role_policy.grafana_ecs_task_execution&#45;&gt;[root] aws_iam_role.grafana_ecs_task_execution_role</title>
<path fill="none" stroke="black" d="M1919.54,-359.97C1868.89,-349.72 1804.32,-336.66 1751.97,-326.07"/>
<polygon fill="black" stroke="black" points="1752.51,-322.6 1742.01,-324.05 1751.12,-329.46 1752.51,-322.6"/>
</g>
<!-- [root] data.aws_iam_policy_document.grafana&#45;cloudwatch_role_policy -->
<g id="node24" class="node">
<title>[root] data.aws_iam_policy_document.grafana&#45;cloudwatch_role_policy</title>
<polygon fill="none" stroke="black" points="2237.94,-180 1855.53,-180 1855.53,-144 2237.94,-144 2237.94,-180"/>
<text text-anchor="middle" x="2046.73" y="-157.8" font-family="Times,serif" font-size="14.00">data.aws_iam_policy_document.grafana&#45;cloudwatch_role_policy</text>
</g>
<!-- [root] aws_iam_role_policy.grafana_ecs_task_execution&#45;&gt;[root] data.aws_iam_policy_document.grafana&#45;cloudwatch_role_policy -->
<g id="edge28" class="edge">
<title>[root] aws_iam_role_policy.grafana_ecs_task_execution&#45;&gt;[root] data.aws_iam_policy_document.grafana&#45;cloudwatch_role_policy</title>
<path fill="none" stroke="black" d="M2007.18,-359.85C2014.63,-322.75 2032.31,-234.81 2041.29,-190.1"/>
<polygon fill="black" stroke="black" points="2044.73,-190.73 2043.27,-180.23 2037.87,-189.35 2044.73,-190.73"/>
</g>
<!-- [root] aws_internet_gateway.gw&#45;&gt;[root] aws_vpc.main -->
<g id="edge29" class="edge">
<title>[root] aws_internet_gateway.gw&#45;&gt;[root] aws_vpc.main</title>
<path fill="none" stroke="black" d="M521.08,-143.7C527.49,-135.39 535.29,-125.28 542.34,-116.14"/>
<polygon fill="black" stroke="black" points="545.2,-118.16 548.54,-108.1 539.66,-113.88 545.2,-118.16"/>
</g>
<!-- [root] aws_nat_gateway.gw -->
<g id="node13" class="node">
<title>[root] aws_nat_gateway.gw</title>
<polygon fill="none" stroke="black" points="356.45,-324 221.02,-324 221.02,-288 356.45,-288 356.45,-324"/>
<text text-anchor="middle" x="288.73" y="-301.8" font-family="Times,serif" font-size="14.00">aws_nat_gateway.gw</text>
</g>
<!-- [root] aws_nat_gateway.gw&#45;&gt;[root] aws_eip.gw -->
<g id="edge30" class="edge">
<title>[root] aws_nat_gateway.gw&#45;&gt;[root] aws_eip.gw</title>
<path fill="none" stroke="black" d="M318.58,-287.88C334.68,-278.64 354.74,-267.13 372.02,-257.21"/>
<polygon fill="black" stroke="black" points="373.84,-260.2 380.78,-252.19 370.36,-254.13 373.84,-260.2"/>
</g>
<!-- [root] aws_nat_gateway.gw&#45;&gt;[root] aws_subnet.public -->
<g id="edge31" class="edge">
<title>[root] aws_nat_gateway.gw&#45;&gt;[root] aws_subnet.public</title>
<path fill="none" stroke="black" d="M289.48,-287.7C289.81,-279.98 290.2,-270.71 290.57,-262.11"/>
<polygon fill="black" stroke="black" points="294.07,-262.25 291,-252.1 287.08,-261.95 294.07,-262.25"/>
</g>
<!-- [root] aws_route.internet_access -->
<g id="node14" class="node">
<title>[root] aws_route.internet_access</title>
<polygon fill="none" stroke="black" points="555.78,-468 393.69,-468 393.69,-432 555.78,-432 555.78,-468"/>
<text text-anchor="middle" x="474.73" y="-445.8" font-family="Times,serif" font-size="14.00">aws_route.internet_access</text>
</g>
<!-- [root] aws_route.internet_access&#45;&gt;[root] aws_internet_gateway.gw -->
<g id="edge32" class="edge">
<title>[root] aws_route.internet_access&#45;&gt;[root] aws_internet_gateway.gw</title>
<path fill="none" stroke="black" d="M456.5,-431.6C427.3,-401.55 376.01,-338.3 403.73,-288 418.2,-261.76 440.38,-273.99 460.73,-252 477.54,-233.85 490.13,-208.56 498.03,-189.57"/>
<polygon fill="black" stroke="black" points="501.38,-190.61 501.83,-180.03 494.88,-188.02 501.38,-190.61"/>
</g>
<!-- [root] aws_route_table.private -->
<g id="node15" class="node">
<title>[root] aws_route_table.private</title>
<polygon fill="none" stroke="black" points="344.85,-396 194.62,-396 194.62,-360 344.85,-360 344.85,-396"/>
<text text-anchor="middle" x="269.73" y="-373.8" font-family="Times,serif" font-size="14.00">aws_route_table.private</text>
</g>
<!-- [root] aws_route_table.private&#45;&gt;[root] aws_nat_gateway.gw -->
<g id="edge33" class="edge">
<title>[root] aws_route_table.private&#45;&gt;[root] aws_nat_gateway.gw</title>
<path fill="none" stroke="black" d="M274.43,-359.7C276.55,-351.9 279.1,-342.51 281.45,-333.83"/>
<polygon fill="black" stroke="black" points="284.85,-334.67 284.09,-324.1 278.09,-332.84 284.85,-334.67"/>
</g>
<!-- [root] aws_route_table_association.private -->
<g id="node16" class="node">
<title>[root] aws_route_table_association.private</title>
<polygon fill="none" stroke="black" points="375.56,-468 155.91,-468 155.91,-432 375.56,-432 375.56,-468"/>
<text text-anchor="middle" x="265.73" y="-445.8" font-family="Times,serif" font-size="14.00">aws_route_table_association.private</text>
</g>
<!-- [root] aws_route_table_association.private&#45;&gt;[root] aws_route_table.private -->
<g id="edge34" class="edge">
<title>[root] aws_route_table_association.private&#45;&gt;[root] aws_route_table.private</title>
<path fill="none" stroke="black" d="M266.72,-431.7C267.16,-423.98 267.69,-414.71 268.19,-406.11"/>
<polygon fill="black" stroke="black" points="271.68,-406.29 268.76,-396.1 264.69,-405.89 271.68,-406.29"/>
</g>
<!-- [root] aws_route_table_association.private&#45;&gt;[root] aws_subnet.private -->
<g id="edge35" class="edge">
<title>[root] aws_route_table_association.private&#45;&gt;[root] aws_subnet.private</title>
<path fill="none" stroke="black" d="M227.82,-431.97C212.55,-423.29 196.13,-411.3 185.73,-396 158.06,-355.28 152.24,-296.41 151.39,-262.29"/>
<polygon fill="black" stroke="black" points="154.89,-262.1 151.27,-252.14 147.89,-262.18 154.89,-262.1"/>
</g>
<!-- [root] aws_security_group.ecs_tasks&#45;&gt;[root] aws_security_group.lb -->
<g id="edge36" class="edge">
<title>[root] aws_security_group.ecs_tasks&#45;&gt;[root] aws_security_group.lb</title>
<path fill="none" stroke="black" d="M1311.95,-289.16C1308.84,-288.75 1305.77,-288.36 1302.73,-288 1082.83,-261.77 1025.35,-280.6 805.73,-252 803.02,-251.65 800.26,-251.26 797.48,-250.86"/>
<polygon fill="black" stroke="black" points="797.76,-247.36 787.34,-249.29 796.69,-254.28 797.76,-247.36"/>
</g>
<!-- [root] aws_security_group.ecs_tasks&#45;&gt;[root] var.app_port -->
<g id="edge37" class="edge">
<title>[root] aws_security_group.ecs_tasks&#45;&gt;[root] var.app_port</title>
<path fill="none" stroke="black" d="M1311.92,-289.34C1308.83,-288.88 1305.76,-288.43 1302.73,-288 1161.7,-267.86 994.75,-249.41 911.11,-240.54"/>
<polygon fill="black" stroke="black" points="911.41,-237.06 901.09,-239.49 910.67,-244.02 911.41,-237.06"/>
</g>
<!-- [root] aws_security_group.lb&#45;&gt;[root] aws_vpc.main -->
<g id="edge38" class="edge">
<title>[root] aws_security_group.lb&#45;&gt;[root] aws_vpc.main</title>
<path fill="none" stroke="black" d="M700.55,-215.91C683.86,-197.46 655.94,-167.56 629.73,-144 618.36,-133.77 605.23,-123.27 593.56,-114.33"/>
<polygon fill="black" stroke="black" points="595.45,-111.37 585.37,-108.13 591.23,-116.95 595.45,-111.37"/>
</g>
<!-- [root] aws_subnet.private&#45;&gt;[root] aws_vpc.main -->
<g id="edge39" class="edge">
<title>[root] aws_subnet.private&#45;&gt;[root] aws_vpc.main</title>
<path fill="none" stroke="black" d="M179.39,-215.97C196.06,-205.65 217.68,-192.17 236.73,-180 261.35,-164.27 264.68,-155.02 291.73,-144 361.29,-115.68 447.24,-102.15 503.22,-95.93"/>
<polygon fill="black" stroke="black" points="503.74,-99.4 513.31,-94.85 503,-92.44 503.74,-99.4"/>
</g>
<!-- [root] data.aws_availability_zones.available -->
<g id="node22" class="node">
<title>[root] data.aws_availability_zones.available</title>
<polygon fill="none" stroke="black" points="227.71,-180 -0.24,-180 -0.24,-144 227.71,-144 227.71,-180"/>
<text text-anchor="middle" x="113.73" y="-157.8" font-family="Times,serif" font-size="14.00">data.aws_availability_zones.available</text>
</g>
<!-- [root] aws_subnet.private&#45;&gt;[root] data.aws_availability_zones.available -->
<g id="edge40" class="edge">
<title>[root] aws_subnet.private&#45;&gt;[root] data.aws_availability_zones.available</title>
<path fill="none" stroke="black" d="M142.34,-215.7C137.97,-207.64 132.68,-197.89 127.84,-188.98"/>
<polygon fill="black" stroke="black" points="130.87,-187.22 123.02,-180.1 124.72,-190.56 130.87,-187.22"/>
</g>
<!-- [root] aws_subnet.private&#45;&gt;[root] var.az_count -->
<g id="edge41" class="edge">
<title>[root] aws_subnet.private&#45;&gt;[root] var.az_count</title>
<path fill="none" stroke="black" d="M203.81,-215.97C236.8,-205.17 279.36,-191.25 312.56,-180.39"/>
<polygon fill="black" stroke="black" points="313.68,-183.71 322.1,-177.27 311.51,-177.06 313.68,-183.71"/>
</g>
<!-- [root] aws_subnet.public&#45;&gt;[root] aws_vpc.main -->
<g id="edge42" class="edge">
<title>[root] aws_subnet.public&#45;&gt;[root] aws_vpc.main</title>
<path fill="none" stroke="black" d="M290.72,-215.65C290.55,-195.54 293.56,-162.76 312.73,-144 339.31,-118 438.51,-103.28 503.39,-96.25"/>
<polygon fill="black" stroke="black" points="503.91,-99.71 513.49,-95.18 503.18,-92.75 503.91,-99.71"/>
</g>
<!-- [root] aws_subnet.public&#45;&gt;[root] data.aws_availability_zones.available -->
<g id="edge43" class="edge">
<title>[root] aws_subnet.public&#45;&gt;[root] data.aws_availability_zones.available</title>
<path fill="none" stroke="black" d="M248.19,-215.88C223.53,-206.18 192.51,-193.98 166.48,-183.74"/>
<polygon fill="black" stroke="black" points="167.72,-180.47 157.14,-180.07 165.16,-186.99 167.72,-180.47"/>
</g>
<!-- [root] aws_subnet.public&#45;&gt;[root] var.az_count -->
<g id="edge44" class="edge">
<title>[root] aws_subnet.public&#45;&gt;[root] var.az_count</title>
<path fill="none" stroke="black" d="M310.03,-215.7C319.17,-207.05 330.37,-196.45 340.33,-187.03"/>
<polygon fill="black" stroke="black" points="342.79,-189.52 347.65,-180.1 337.98,-184.43 342.79,-189.52"/>
</g>
<!-- [root] aws_vpc.main&#45;&gt;[root] provider.aws -->
<g id="edge45" class="edge">
<title>[root] aws_vpc.main&#45;&gt;[root] provider.aws</title>
<path fill="none" stroke="black" d="M610.08,-85.72C777.28,-74.37 1331.37,-36.75 1525.13,-23.59"/>
<polygon fill="black" stroke="black" points="1525.44,-27.08 1535.18,-22.91 1524.97,-20.09 1525.44,-27.08"/>
</g>
<!-- [root] data.aws_availability_zones.available&#45;&gt;[root] provider.aws -->
<g id="edge46" class="edge">
<title>[root] data.aws_availability_zones.available&#45;&gt;[root] provider.aws</title>
<path fill="none" stroke="black" d="M173.42,-143.98C249.59,-123.05 385.76,-88.31 504.73,-72 873.42,-21.46 1318.16,-17.3 1504.19,-18.08"/>
<polygon fill="black" stroke="black" points="1504.45,-21.58 1514.47,-18.13 1504.48,-14.58 1504.45,-21.58"/>
</g>
<!-- [root] data.aws_iam_policy_document.assume_role_policy&#45;&gt;[root] provider.aws -->
<g id="edge47" class="edge">
<title>[root] data.aws_iam_policy_document.assume_role_policy&#45;&gt;[root] provider.aws</title>
<path fill="none" stroke="black" d="M1570.54,-143.74C1563.99,-125.67 1556.27,-96.55 1562.73,-72 1565.45,-61.68 1570.69,-51.26 1576.04,-42.42"/>
<polygon fill="black" stroke="black" points="1579.09,-44.16 1581.55,-33.85 1573.2,-40.37 1579.09,-44.16"/>
</g>
<!-- [root] data.aws_iam_policy_document.grafana&#45;cloudwatch_role_policy&#45;&gt;[root] aws_cloudwatch_log_group.grafana -->
<g id="edge48" class="edge">
<title>[root] data.aws_iam_policy_document.grafana&#45;cloudwatch_role_policy&#45;&gt;[root] aws_cloudwatch_log_group.grafana</title>
<path fill="none" stroke="black" d="M2054.89,-143.7C2058.65,-135.73 2063.19,-126.1 2067.35,-117.26"/>
<polygon fill="black" stroke="black" points="2070.57,-118.64 2071.67,-108.1 2064.24,-115.66 2070.57,-118.64"/>
</g>
<!-- [root] data.aws_iam_policy_document.grafana&#45;cloudwatch_role_policy&#45;&gt;[root] aws_cloudwatch_log_group.influxdb -->
<g id="edge49" class="edge">
<title>[root] data.aws_iam_policy_document.grafana&#45;cloudwatch_role_policy&#45;&gt;[root] aws_cloudwatch_log_group.influxdb</title>
<path fill="none" stroke="black" d="M1996.36,-143.97C1967.31,-134.14 1930.61,-121.73 1900.03,-111.39"/>
<polygon fill="black" stroke="black" points="1900.93,-108 1890.33,-108.11 1898.69,-114.63 1900.93,-108"/>
</g>
<!-- [root] output.alb_hostname -->
<g id="node25" class="node">
<title>[root] output.alb_hostname</title>
<polygon fill="none" stroke="black" points="701.27,-468 574.2,-468 574.2,-432 707.27,-432 707.27,-462 701.27,-468"/>
<polyline fill="none" stroke="black" points="701.27,-468 701.27,-462 "/>
<polyline fill="none" stroke="black" points="707.27,-462 701.27,-462 "/>
<text text-anchor="middle" x="640.73" y="-445.8" font-family="Times,serif" font-size="14.00">output.alb_hostname</text>
</g>
<!-- [root] output.alb_hostname&#45;&gt;[root] aws_alb.main -->
<g id="edge57" class="edge">
<title>[root] output.alb_hostname&#45;&gt;[root] aws_alb.main</title>
<path fill="none" stroke="black" d="M588.2,-432C566.76,-423.41 542.62,-411.47 523.73,-396 502.48,-378.59 484.84,-352.51 473.5,-333.08"/>
<polygon fill="black" stroke="black" points="476.42,-331.12 468.46,-324.14 470.33,-334.57 476.42,-331.12"/>
</g>
<!-- [root] var.aws_account_id -->
<g id="node29" class="node">
<title>[root] var.aws_account_id</title>
<polygon fill="none" stroke="black" points="1080.04,-468 959.43,-468 959.43,-432 1086.04,-432 1086.04,-462 1080.04,-468"/>
<polyline fill="none" stroke="black" points="1080.04,-468 1080.04,-462 "/>
<polyline fill="none" stroke="black" points="1086.04,-462 1080.04,-462 "/>
<text text-anchor="middle" x="1022.73" y="-445.8" font-family="Times,serif" font-size="14.00">var.aws_account_id</text>
</g>
<!-- [root] var.aws_region -->
<g id="node30" class="node">
<title>[root] var.aws_region</title>
<polygon fill="none" stroke="black" points="1199.38,-468 1104.09,-468 1104.09,-432 1205.38,-432 1205.38,-462 1199.38,-468"/>
<polyline fill="none" stroke="black" points="1199.38,-468 1199.38,-462 "/>
<polyline fill="none" stroke="black" points="1205.38,-462 1199.38,-462 "/>
<text text-anchor="middle" x="1154.73" y="-445.8" font-family="Times,serif" font-size="14.00">var.aws_region</text>
</g>
<!-- [root] meta.count&#45;boundary (EachMode fixup) -->
<g id="node37" class="node">
<title>[root] meta.count&#45;boundary (EachMode fixup)</title>
<ellipse fill="none" stroke="black" cx="795.73" cy="-522" rx="174.79" ry="18"/>
<text text-anchor="middle" x="795.73" y="-517.8" font-family="Times,serif" font-size="14.00">[root] meta.count&#45;boundary (EachMode fixup)</text>
</g>
<!-- [root] meta.count&#45;boundary (EachMode fixup)&#45;&gt;[root] aws_ecs_service.main -->
<g id="edge50" class="edge">
<title>[root] meta.count&#45;boundary (EachMode fixup)&#45;&gt;[root] aws_ecs_service.main</title>
<path fill="none" stroke="black" d="M795.73,-503.7C795.73,-495.98 795.73,-486.71 795.73,-478.11"/>
<polygon fill="black" stroke="black" points="799.23,-478.1 795.73,-468.1 792.23,-478.1 799.23,-478.1"/>
</g>
<!-- [root] meta.count&#45;boundary (EachMode fixup)&#45;&gt;[root] aws_iam_role_policy.grafana_ecs_task_execution -->
<g id="edge51" class="edge">
<title>[root] meta.count&#45;boundary (EachMode fixup)&#45;&gt;[root] aws_iam_role_policy.grafana_ecs_task_execution</title>
<path fill="none" stroke="black" d="M836.97,-504.5C858.73,-495.06 885.45,-482.27 907.73,-468 928.73,-454.56 927.49,-440.98 950.73,-432 1043.16,-396.29 1742.91,-403.17 1841.73,-396 1842.83,-395.92 1843.92,-395.84 1845.03,-395.76"/>
<polygon fill="black" stroke="black" points="1845.32,-399.25 1855.02,-394.98 1844.78,-392.27 1845.32,-399.25"/>
</g>
<!-- [root] meta.count&#45;boundary (EachMode fixup)&#45;&gt;[root] aws_route.internet_access -->
<g id="edge52" class="edge">
<title>[root] meta.count&#45;boundary (EachMode fixup)&#45;&gt;[root] aws_route.internet_access</title>
<path fill="none" stroke="black" d="M724.49,-505.46C676.79,-495.06 613.66,-481.29 562.8,-470.2"/>
<polygon fill="black" stroke="black" points="563.32,-466.73 552.8,-468.02 561.83,-473.57 563.32,-466.73"/>
</g>
<!-- [root] meta.count&#45;boundary (EachMode fixup)&#45;&gt;[root] aws_route_table_association.private -->
<g id="edge53" class="edge">
<title>[root] meta.count&#45;boundary (EachMode fixup)&#45;&gt;[root] aws_route_table_association.private</title>
<path fill="none" stroke="black" d="M689.24,-507.67C608.74,-497.5 495.22,-482.96 385.86,-468.14"/>
<polygon fill="black" stroke="black" points="386.01,-464.63 375.63,-466.75 385.07,-471.57 386.01,-464.63"/>
</g>
<!-- [root] meta.count&#45;boundary (EachMode fixup)&#45;&gt;[root] output.alb_hostname -->
<g id="edge54" class="edge">
<title>[root] meta.count&#45;boundary (EachMode fixup)&#45;&gt;[root] output.alb_hostname</title>
<path fill="none" stroke="black" d="M758.61,-504.23C737.36,-494.63 710.48,-482.5 687.76,-472.24"/>
<polygon fill="black" stroke="black" points="689.19,-469.04 678.64,-468.12 686.31,-475.42 689.19,-469.04"/>
</g>
<!-- [root] meta.count&#45;boundary (EachMode fixup)&#45;&gt;[root] var.aws_account_id -->
<g id="edge55" class="edge">
<title>[root] meta.count&#45;boundary (EachMode fixup)&#45;&gt;[root] var.aws_account_id</title>
<path fill="none" stroke="black" d="M848.38,-504.76C881.07,-494.69 923.31,-481.66 958.02,-470.95"/>
<polygon fill="black" stroke="black" points="959.08,-474.29 967.6,-468 957.02,-467.6 959.08,-474.29"/>
</g>
<!-- [root] meta.count&#45;boundary (EachMode fixup)&#45;&gt;[root] var.aws_region -->
<g id="edge56" class="edge">
<title>[root] meta.count&#45;boundary (EachMode fixup)&#45;&gt;[root] var.aws_region</title>
<path fill="none" stroke="black" d="M889.82,-506.81C946.41,-497.69 1020.01,-484.8 1094.11,-468.02"/>
<polygon fill="black" stroke="black" points="1095.12,-471.38 1104.09,-465.74 1093.56,-464.56 1095.12,-471.38"/>
</g>
<!-- [root] provider.aws (close) -->
<g id="node38" class="node">
<title>[root] provider.aws (close)</title>
<ellipse fill="none" stroke="black" cx="498.73" cy="-522" rx="104.33" ry="18"/>
<text text-anchor="middle" x="498.73" y="-517.8" font-family="Times,serif" font-size="14.00">[root] provider.aws (close)</text>
</g>
<!-- [root] provider.aws (close)&#45;&gt;[root] aws_ecs_service.main -->
<g id="edge58" class="edge">
<title>[root] provider.aws (close)&#45;&gt;[root] aws_ecs_service.main</title>
<path fill="none" stroke="black" d="M557.77,-507.09C602.97,-496.43 665.8,-481.63 715.55,-469.9"/>
<polygon fill="black" stroke="black" points="716.38,-473.3 725.31,-467.6 714.78,-466.48 716.38,-473.3"/>
</g>
<!-- [root] provider.aws (close)&#45;&gt;[root] aws_iam_role_policy.grafana_ecs_task_execution -->
<g id="edge59" class="edge">
<title>[root] provider.aws (close)&#45;&gt;[root] aws_iam_role_policy.grafana_ecs_task_execution</title>
<path fill="none" stroke="black" d="M574.09,-509.52C586.65,-507.65 599.56,-505.75 611.73,-504 728.51,-487.22 770.22,-522.74 874.73,-468 893.96,-457.93 888.04,-441.12 907.73,-432 1001.98,-388.36 1738.15,-403.42 1841.73,-396 1842.83,-395.92 1843.92,-395.84 1845.03,-395.76"/>
<polygon fill="black" stroke="black" points="1845.32,-399.25 1855.02,-394.99 1844.78,-392.27 1845.32,-399.25"/>
</g>
<!-- [root] provider.aws (close)&#45;&gt;[root] aws_route.internet_access -->
<g id="edge60" class="edge">
<title>[root] provider.aws (close)&#45;&gt;[root] aws_route.internet_access</title>
<path fill="none" stroke="black" d="M492.8,-503.7C490.13,-495.9 486.91,-486.51 483.93,-477.83"/>
<polygon fill="black" stroke="black" points="487.15,-476.43 480.6,-468.1 480.53,-478.7 487.15,-476.43"/>
</g>
<!-- [root] provider.aws (close)&#45;&gt;[root] aws_route_table_association.private -->
<g id="edge61" class="edge">
<title>[root] provider.aws (close)&#45;&gt;[root] aws_route_table_association.private</title>
<path fill="none" stroke="black" d="M449.04,-506.07C415.05,-495.86 369.61,-482.21 332.48,-471.05"/>
<polygon fill="black" stroke="black" points="333.32,-467.65 322.74,-468.12 331.31,-474.35 333.32,-467.65"/>
</g>
<!-- [root] root -->
<g id="node39" class="node">
<title>[root] root</title>
<ellipse fill="none" stroke="black" cx="646.73" cy="-594" rx="46.9" ry="18"/>
<text text-anchor="middle" x="646.73" y="-589.8" font-family="Times,serif" font-size="14.00">[root] root</text>
</g>
<!-- [root] root&#45;&gt;[root] meta.count&#45;boundary (EachMode fixup) -->
<g id="edge62" class="edge">
<title>[root] root&#45;&gt;[root] meta.count&#45;boundary (EachMode fixup)</title>
<path fill="none" stroke="black" d="M675.11,-579.67C696.52,-569.61 726.32,-555.61 750.94,-544.05"/>
<polygon fill="black" stroke="black" points="752.53,-547.17 760.09,-539.75 749.55,-540.83 752.53,-547.17"/>
</g>
<!-- [root] root&#45;&gt;[root] provider.aws (close) -->
<g id="edge63" class="edge">
<title>[root] root&#45;&gt;[root] provider.aws (close)</title>
<path fill="none" stroke="black" d="M618.2,-579.5C596.52,-569.25 566.35,-554.98 541.76,-543.35"/>
<polygon fill="black" stroke="black" points="543.17,-540.14 532.63,-539.03 540.17,-546.47 543.17,-540.14"/>
</g>
</g>
</svg>
